<?xml version="1.0" standalone="no"?>
<!DOCTYPE svg PUBLIC "-//W3C//DTD SVG 20010904//EN"
 "http://www.w3.org/TR/2001/REC-SVG-20010904/DTD/svg10.dtd">
<svg version="1.0" xmlns="http://www.w3.org/2000/svg"
 width="300.000000pt" height="340.000000pt" viewBox="0 0 300.000000 340.000000"
 preserveAspectRatio="xMidYMid meet">
<metadata>
Created by potrace 1.10, written by Peter Selinger 2001-2011
</metadata>
<g transform="translate(0.000000,340.000000) scale(0.100000,-0.100000)"
fill="#000000" stroke="none">
<path d="M766 3323 c-41 -34 -46 -42 -46 -79 0 -22 7 -49 15 -60 22 -28 18
-40 -15 -54 -43 -18 -118 -105 -151 -175 -22 -46 -29 -78 -31 -136 -2 -42 -7
-76 -13 -76 -24 0 -92 -40 -127 -75 -29 -29 -38 -46 -38 -72 0 -19 5 -38 10
-41 6 -4 8 -21 5 -39 -11 -57 65 -111 104 -73 10 10 11 9 6 -5 -6 -14 -2 -18
19 -18 20 0 26 -5 26 -21 0 -32 49 -262 58 -268 4 -4 8 -18 9 -34 3 -45 62
-152 111 -202 62 -61 146 -101 268 -126 90 -19 107 -20 184 -8 47 7 96 16 109
21 21 7 29 3 62 -33 24 -26 42 -38 50 -34 7 5 10 4 6 -2 -9 -14 48 -37 68 -29
9 3 13 2 10 -4 -3 -5 4 -12 17 -14 13 -3 37 -8 53 -11 84 -18 244 5 237 35 -1
6 2 9 8 5 18 -11 64 25 103 80 20 29 37 57 37 62 0 4 9 19 20 33 11 14 20 33
20 43 0 10 5 15 10 12 15 -9 12 4 -5 22 -8 8 -13 18 -10 23 3 5 1 20 -5 34 -5
14 -12 47 -15 73 -3 27 -8 64 -11 83 -4 19 -6 62 -5 94 1 39 -3 62 -11 68 -9
5 -10 8 -1 8 8 0 12 29 12 98 1 144 24 279 54 311 38 43 49 78 36 116 -7 18
-9 40 -6 49 17 43 184 83 299 72 95 -9 198 -60 234 -117 31 -49 26 -69 -17
-69 -108 0 -345 -58 -376 -92 -32 -36 -1 -40 63 -9 76 38 247 65 349 56 116
-11 211 -45 280 -98 47 -37 86 -73 66 -62 -10 6 -12 2 -6 -14 11 -36 -15 -81
-64 -112 -38 -25 -47 -27 -60 -15 -56 49 -155 74 -327 82 -118 6 -138 4 -210
-16 -91 -27 -102 -33 -85 -54 14 -17 37 -14 83 11 28 15 55 18 168 17 118 -1
145 -4 215 -27 87 -29 113 -42 103 -52 -3 -4 -39 -15 -80 -26 -57 -14 -113
-19 -254 -20 -100 -1 -186 1 -191 4 -13 8 -47 -28 -39 -41 8 -13 90 -21 270
-27 161 -5 166 -7 166 -60 0 -35 -30 -125 -42 -125 -4 0 -8 -5 -8 -11 0 -6
-27 -41 -60 -79 -73 -81 -131 -107 -251 -112 -48 -2 -84 -9 -95 -18 -18 -14
-18 -14 -5 3 12 15 11 17 -10 19 -38 2 -41 3 -91 26 -55 26 -65 27 -48 7 10
-11 10 -18 1 -29 -10 -11 -3 -17 36 -33 38 -14 76 -18 184 -18 133 0 136 0
200 33 80 41 94 53 147 123 48 63 80 147 89 231 6 55 7 58 42 69 56 17 184 88
204 112 53 64 71 155 42 211 -8 15 -15 45 -15 65 -1 54 -29 100 -75 125 -49
25 -42 24 -159 32 -81 6 -96 10 -101 25 -10 30 -88 88 -152 113 -83 32 -132
38 -229 26 -98 -12 -178 -41 -216 -77 -26 -25 -27 -25 -47 -6 -11 10 -43 30
-70 43 -28 14 -51 29 -51 34 0 4 -7 6 -15 2 -8 -3 -14 0 -12 6 3 15 -156 79
-164 66 -4 -7 -8 -6 -10 1 -6 16 -156 78 -247 102 -93 24 -286 43 -370 36 -51
-4 -62 -2 -58 9 7 19 -11 64 -36 92 -33 34 -76 29 -132 -15z m105 -33 c12 -7
19 -21 19 -40 0 -24 -6 -30 -37 -41 -21 -6 -44 -16 -51 -22 -10 -8 -16 -7 -23
4 -13 20 -11 83 3 97 15 15 63 16 89 2z m450 -128 c63 -16 145 -42 180 -56 36
-14 71 -26 78 -26 6 0 43 -16 81 -35 39 -19 70 -33 70 -29 0 8 109 -53 134
-75 32 -28 39 -60 21 -98 -9 -18 -13 -38 -10 -43 15 -24 -21 -7 -53 26 -23 24
-38 32 -45 25 -18 -18 19 -58 83 -88 52 -24 59 -31 55 -51 -31 -136 -37 -512
-10 -639 9 -43 21 -86 26 -97 8 -14 7 -16 -2 -10 -9 5 -11 1 -7 -14 4 -13 1
-25 -7 -30 -8 -4 -14 -10 -14 -15 -1 -13 -33 -71 -58 -103 -27 -37 -100 -87
-112 -79 -5 3 -11 0 -13 -6 -7 -20 -124 -22 -197 -4 -95 24 -141 48 -184 94
-21 23 -42 41 -48 41 -6 0 -23 -13 -39 -28 -20 -21 -33 -26 -44 -20 -10 6 -26
3 -46 -7 -16 -8 -30 -12 -30 -8 0 5 -19 9 -43 11 -97 6 -112 16 -150 95 -35
71 -51 129 -67 237 -4 30 -10 66 -13 80 -3 14 -9 52 -13 85 -4 33 -8 67 -9 75
-17 118 -28 271 -28 430 -2 200 8 309 27 322 8 5 7 8 -1 8 -7 0 -13 5 -13 11
0 5 5 7 11 4 5 -4 18 0 29 10 27 25 58 30 208 33 126 3 147 1 253 -26z m-521
-35 c0 -2 -7 -50 -16 -108 -12 -80 -14 -141 -9 -264 6 -162 28 -415 45 -515
38 -231 63 -331 90 -370 26 -37 25 -42 -6 -34 -21 6 -25 4 -19 -7 5 -8 4 -11
-1 -6 -5 5 -9 13 -9 19 0 6 -15 19 -34 29 -18 9 -55 36 -82 59 -90 76 -155
257 -166 458 -5 92 -9 112 -20 107 -8 -3 -21 -5 -29 -5 -9 0 -14 -7 -12 -17 2
-11 -4 -18 -17 -20 -11 -1 -14 0 -7 3 18 9 15 23 -6 21 -24 -1 -82 23 -82 34
0 5 30 9 68 9 86 0 112 7 112 31 0 21 -16 26 -23 7 -3 -8 -6 -5 -6 5 -1 16 -7
17 -48 11 -27 -3 -55 -13 -64 -20 -8 -8 -20 -14 -25 -14 -5 0 0 8 11 17 15 12
16 14 3 10 -29 -10 -41 17 -23 53 15 30 99 80 134 80 8 0 11 6 7 16 -7 17 18
145 41 213 23 68 62 119 122 161 51 35 71 46 71 37z m1181 -281 c14 -31 -6
-75 -41 -88 -13 -5 -21 -6 -17 -2 3 4 0 16 -8 28 -20 28 -19 31 12 61 34 31
41 31 54 1z m798 -62 c48 -14 101 -54 101 -75 0 -13 -34 -11 -48 4 -7 6 -58
23 -114 37 -56 14 -103 31 -106 38 -6 18 103 15 167 -4z m-2145 -699 c4 -20
10 -34 14 -31 4 2 8 -3 9 -12 1 -9 4 -28 8 -42 4 -14 -2 -7 -13 15 -24 46 -44
118 -32 110 4 -3 11 -21 14 -40z m213 -240 c24 -25 8 -28 -28 -6 -31 19 -32
21 -11 21 13 0 30 -7 39 -15z"/>
<path d="M1605 2564 c-123 -19 -209 -49 -245 -86 -35 -34 -62 -82 -53 -92 4
-3 1 -6 -6 -6 -21 0 18 -55 47 -67 66 -28 113 -35 217 -31 88 3 123 8 172 28
41 16 63 31 63 41 0 28 -23 28 -106 0 -43 -14 -88 -26 -99 -24 -11 1 -38 3
-60 5 -22 2 -43 8 -47 13 -5 6 -8 6 -8 -2 0 -9 -8 -8 -27 3 -16 7 -35 14 -44
14 -9 0 -26 8 -38 18 l-22 17 30 36 c24 29 45 40 108 59 43 13 80 25 83 25 7
2 151 16 178 18 26 1 31 32 6 41 -21 8 -41 6 -149 -10z"/>
<path d="M2233 2083 c-12 -2 -27 -10 -33 -18 -8 -10 -3 -18 24 -34 46 -29 103
-21 117 16 5 14 7 29 3 34 -5 9 -69 10 -111 2z"/>
<path d="M690 1692 c-30 -9 -61 -21 -68 -25 -24 -16 -2 -25 48 -20 32 3 56 0
66 -8 18 -15 121 -16 137 0 48 48 180 -90 206 -216 12 -53 17 -62 46 -76 23
-11 36 -12 43 -5 8 8 9 5 5 -10 -3 -14 2 -24 15 -31 11 -6 22 -8 25 -3 2 4 2
2 1 -5 -2 -7 3 -19 11 -27 33 -33 6 -120 -49 -158 -17 -12 -43 -34 -57 -48
-48 -47 -292 -82 -424 -61 -99 15 -106 17 -203 47 -112 34 -148 52 -133 67 6
6 11 47 11 96 0 108 31 200 89 269 49 60 66 98 46 106 -8 3 -33 -17 -62 -51
-56 -64 -60 -72 -42 -85 11 -8 10 -9 -3 -5 -17 6 -22 -3 -38 -55 -6 -19 -5
-28 3 -28 6 0 2 -6 -9 -14 -16 -12 -19 -28 -20 -113 -1 -61 -8 -121 -19 -158
-9 -33 -19 -73 -21 -90 -2 -16 -8 -68 -14 -115 -19 -147 -29 -242 -36 -327 -7
-78 -8 -83 -30 -83 -13 0 -26 -5 -29 -11 -5 -6 -11 -4 -19 6 -8 11 -23 16 -41
13 -27 -3 -30 -7 -33 -45 -3 -36 2 -47 30 -79 27 -29 41 -36 71 -36 29 0 37
-4 37 -18 0 -33 44 -68 120 -95 91 -32 240 -52 251 -33 4 6 6 -7 4 -29 -3 -31
0 -45 16 -59 26 -23 48 -11 64 37 l12 34 64 -3 c89 -3 109 -9 109 -32 0 -10
10 -31 23 -46 22 -25 24 -25 40 -10 9 10 17 31 17 47 0 21 5 29 18 30 156 5
289 67 311 146 16 56 -10 422 -34 480 -18 44 -18 44 0 37 10 -4 15 0 15 11 0
9 5 13 11 10 6 -4 8 -14 5 -22 -5 -12 -1 -14 16 -9 13 3 42 9 66 12 23 4 42
10 42 15 0 5 6 6 13 4 21 -8 142 58 141 77 -1 10 3 16 10 15 6 -1 12 12 14 29
2 25 -4 38 -30 63 -47 44 -87 54 -218 56 -68 0 -115 4 -115 10 0 6 13 31 28
58 42 69 45 115 13 163 -14 21 -40 50 -57 64 -61 47 -78 68 -88 106 -15 54
-49 107 -63 98 -7 -4 -8 -3 -4 5 9 15 -32 73 -46 65 -6 -4 -8 -2 -5 3 9 14
-40 46 -55 37 -7 -4 -8 -3 -4 4 8 13 -69 36 -86 26 -7 -4 -8 -3 -4 4 11 18
-88 14 -154 -6z m55 -18 c16 -8 37 -13 47 -11 10 3 18 1 18 -4 0 -13 -47 -11
-55 1 -4 6 -20 9 -35 6 -22 -3 -27 -1 -23 10 7 18 11 17 48 -2z m-225 -669 c4
3 10 0 12 -6 2 -6 23 -11 46 -12 23 -1 42 -6 42 -11 0 -5 21 -6 48 -2 32 4 42
3 32 -4 -11 -7 -7 -10 18 -10 18 0 31 4 28 8 -3 5 9 6 27 4 28 -4 30 -6 12
-14 -13 -5 2 -6 40 -3 33 3 61 9 63 14 1 4 16 6 32 3 41 -6 200 32 200 48 0 3
10 5 23 6 12 0 31 4 42 8 17 7 17 6 5 -4 -12 -9 -7 -11 25 -6 30 4 36 3 25 -5
-12 -8 -9 -9 12 -5 14 3 32 8 40 11 10 4 13 -18 13 -109 0 -88 -3 -112 -12
-104 -7 5 -32 16 -57 23 -37 11 -46 11 -56 0 -7 -8 -7 -15 -1 -19 5 -3 11 -3
14 1 2 5 2 3 1 -4 -6 -23 18 -73 34 -74 11 0 12 -2 4 -6 -6 -2 -10 -8 -8 -12
3 -4 -7 -8 -22 -9 -15 -1 -28 -6 -30 -12 -2 -5 -10 -6 -18 -3 -8 3 -14 0 -14
-7 0 -7 -8 -9 -22 -4 -24 8 -68 7 -76 -1 -2 -2 -8 -22 -12 -44 -12 -66 62
-242 94 -224 6 3 7 2 3 -3 -11 -11 -111 -33 -157 -33 -20 -1 -46 -9 -59 -18
-14 -9 -21 -12 -18 -6 4 7 -70 12 -226 16 -225 5 -350 21 -383 48 -12 10 -11
74 6 234 6 55 12 121 14 147 2 26 6 50 9 55 3 4 7 43 11 85 7 92 8 101 20 109
5 4 44 -6 88 -22 44 -16 83 -27 88 -24z m870 27 c-18 -7 74 -34 109 -33 14 1
22 -2 18 -5 -3 -4 0 -16 8 -28 8 -11 15 -26 15 -33 0 -17 -63 -56 -139 -87
l-61 -25 -1 37 c0 20 -1 68 -2 105 -2 60 0 67 15 64 10 -3 23 1 29 9 7 8 15
12 18 8 3 -4 -1 -9 -9 -12z m-159 -354 c0 -2 6 -65 13 -140 11 -130 11 -138
-6 -138 -10 0 -18 -6 -18 -12 0 -7 -5 -5 -11 5 -5 9 -17 17 -25 17 -40 0 -110
108 -121 185 -3 25 -11 45 -17 46 -6 1 30 9 79 19 112 22 105 20 106 18z
m-993 -276 c5 -17 -27 -52 -48 -52 -20 0 -60 36 -60 54 0 18 102 16 108 -2z
m965 -34 c12 0 28 -1 35 -1 8 1 12 -14 12 -42 0 -55 -25 -86 -98 -122 -55 -27
-62 -28 -227 -30 -267 -2 -519 24 -601 63 -44 21 -68 65 -59 111 5 26 10 33
23 29 18 -6 50 -12 142 -25 30 -5 150 -9 265 -10 173 -1 231 2 330 19 66 12
121 25 123 30 2 6 10 3 19 -5 8 -8 24 -16 36 -17z m-543 -243 c0 -13 -4 -26
-9 -29 -10 -6 -20 33 -13 52 6 19 22 3 22 -23z m268 -17 c-2 -13 -7 -23 -13
-23 -5 0 -11 10 -13 23 -2 15 2 22 13 22 11 0 15 -7 13 -22z"/>
<path d="M524 1633 c-12 -28 -12 -36 -2 -47 7 -7 19 -11 26 -8 7 2 12 -4 11
-15 0 -10 -3 -13 -5 -6 -6 14 -34 6 -34 -9 0 -6 8 -17 18 -24 13 -10 14 -15 5
-24 -16 -18 4 -72 26 -68 17 4 18 14 8 98 -6 55 -16 82 -28 74 -5 -3 -6 2 -3
10 8 20 18 20 33 2 9 -11 9 -15 -1 -18 -20 -7 49 -37 74 -32 17 3 19 2 6 -3
-12 -6 -15 -12 -8 -23 5 -8 10 -11 10 -6 0 5 8 -1 19 -13 19 -22 51 -20 51 3
0 6 -22 35 -49 65 l-49 54 3 -32 c3 -31 2 -31 -16 -15 -20 18 -25 29 -9 19 14
-9 12 7 -4 28 -8 10 -26 20 -41 22 -23 2 -29 -3 -41 -32z"/>
<path d="M903 1415 c-17 -13 -16 -14 10 -15 15 0 30 -1 34 -2 4 -2 9 4 11 12
4 20 -30 23 -55 5z"/>
<path d="M884 1325 c-5 -11 3 -25 22 -41 50 -40 94 -27 94 29 0 24 -3 28 -17
22 -23 -10 -43 -10 -71 -1 -16 5 -24 3 -28 -9z"/>
</g>
</svg>
